<svg width="50" height="30" viewBox="0 0 50 30" fill="none" xmlns="http://www.w3.org/2000/svg">
<path d="M19.994 4.20886H17.8961C15.478 4.20886 14.2082 5.47865 14.2082 7.88574V9.98365C14.2082 12.3907 15.478 13.6605 17.8851 13.6605H19.983C22.3901 13.6605 23.6599 12.3907 23.6599 9.98365V7.88574C23.6709 5.47865 22.4011 4.20886 19.994 4.20886Z" fill="white"/>
<path d="M32.6151 4.20886H30.5172C28.1101 4.20886 26.8403 5.47865 26.8403 7.88574V9.98365C26.8403 12.3907 28.1101 13.6605 30.5172 13.6605H32.6151C35.0222 13.6605 36.292 12.3907 36.292 9.98365V7.88574C36.292 5.47865 35.0222 4.20886 32.6151 4.20886Z" fill="white"/>
<path d="M32.6151 16.8291H30.5172C28.1101 16.8291 26.8403 18.0989 26.8403 20.506V22.6039C26.8403 25.011 28.1101 26.2808 30.5172 26.2808H32.6151C35.0222 26.2808 36.292 25.011 36.292 22.6039V20.506C36.292 18.0989 35.0222 16.8291 32.6151 16.8291Z" fill="white"/>
<path d="M19.994 16.8291H17.8961C15.478 16.8291 14.2082 18.0989 14.2082 20.506V22.6039C14.2082 25.022 15.478 26.2918 17.8851 26.2918H19.983C22.3901 26.2918 23.6599 25.022 23.6599 22.615V20.517C23.6709 18.0989 22.4011 16.8291 19.994 16.8291Z" fill="white"/>
</svg>
